<svg xmlns:mydata="http://www.w3.org/2000/svg" mydata:contrastcolor="11111f" mydata:template="Contrast" mydata:presentation="2.5" mydata:layouttype="undefined" mydata:specialfontid="undefined" mydata:id1="372" mydata:id2="052" mydata:companyname="BUILDUPOINT" mydata:companytagline="BUILD U POINT TO BUILD UP YOUR POINT" version="1.1" xmlns="http://www.w3.org/2000/svg" xmlns:xlink="http://www.w3.org/1999/xlink" style="height: 453px;" viewBox="0 0 550 470"><g fill="#eb6fbd" fill-rule="none" stroke="none" stroke-width="1" stroke-linecap="butt" stroke-linejoin="miter" stroke-miterlimit="10" stroke-dasharray="" stroke-dashoffset="0" font-family="none" font-weight="none" font-size="none" text-anchor="none" style="mix-blend-mode: normal"><g data-paper-data="{&quot;isGlobalGroup&quot;:true,&quot;bounds&quot;:{&quot;x&quot;:146.00000000000003,&quot;y&quot;:106.00000000000003,&quot;width&quot;:258,&quot;height&quot;:258}}"><g data-paper-data="{&quot;fillRule&quot;:&quot;nonzero&quot;,&quot;fillRuleOriginal&quot;:&quot;nonzero&quot;,&quot;isIcon&quot;:true,&quot;iconStyle&quot;:&quot;standalone&quot;,&quot;selectedEffects&quot;:{&quot;container&quot;:&quot;circle_simple_filled&quot;,&quot;transformation&quot;:&quot;&quot;,&quot;pattern&quot;:&quot;particle-circle&quot;},&quot;bounds&quot;:{&quot;x&quot;:196.3827756007484,&quot;y&quot;:156.3827756007484,&quot;width&quot;:157.23366263019005,&quot;height&quot;:157.2336626301901},&quot;widthRatioIconToContainer&quot;:0.6555323070985932,&quot;heightRatioIconToContainer&quot;:0.7235826678126945,&quot;relativeBoundsIconToContainer&quot;:{&quot;top&quot;:-0.008381280269423523,&quot;left&quot;:0.022029402941927817},&quot;iconType&quot;:&quot;initial&quot;,&quot;initialText&quot;:&quot;B&quot;,&quot;rawInitialId&quot;:157,&quot;blockLetter&quot;:&quot;O&quot;,&quot;monogramSpecial&quot;:&quot;particle-circle&quot;,&quot;suitableAsStandaloneIcon&quot;:true}" fill-rule="nonzero" id="element-id-20630"><path d="M196.38278,234.99961c0,-43.41887 35.19796,-78.61683 78.61683,-78.61683c43.41887,0 78.61683,35.19796 78.61683,78.61683c0,43.41887 -35.19796,78.61683 -78.61683,78.61683c-43.41887,0 -78.61683,-35.19796 -78.61683,-78.61683zM254.91876,252.92578c1.21366,0 2.19753,-0.98387 2.19753,-2.19753c0,-1.21366 -0.98387,-2.19753 -2.19753,-2.19753c-1.21366,0 -2.19753,0.98387 -2.19753,2.19753c0,1.21366 0.98387,2.19753 2.19753,2.19753zM236.60057,256.11675c2.12483,0 3.84735,-1.72252 3.84735,-3.84735c0,-2.12483 -1.72252,-3.84735 -3.84735,-3.84735c-2.12483,0 -3.84735,1.72252 -3.84735,3.84735c0,2.12483 1.72252,3.84735 3.84735,3.84735zM246.05686,259.31152c2.693,0 4.87611,-2.18311 4.87611,-4.87611c0,-2.693 -2.18311,-4.87611 -4.87611,-4.87611c-2.693,0 -4.87611,2.18311 -4.87611,4.87611c0,2.693 2.18311,4.87611 4.87611,4.87611zM256.08174,263.57087c2.693,0 4.87611,-2.18311 4.87611,-4.87611c0,-2.693 -2.18311,-4.87611 -4.87611,-4.87611c-2.693,0 -4.87611,2.18311 -4.87611,4.87611c0,2.693 2.18311,4.87611 4.87611,4.87611zM234.67941,261.50334c1.26263,0 2.28619,-1.02356 2.28619,-2.28619c0,-1.26263 -1.02356,-2.28619 -2.28619,-2.28619c-1.26263,0 -2.28619,1.02356 -2.28619,2.28619c0,1.26263 1.02356,2.28619 2.28619,2.28619zM254.49721,275.48486c3.05047,0 5.52336,-2.47289 5.52336,-5.52336c0,-3.05047 -2.47289,-5.52336 -5.52336,-5.52336c-3.05047,0 -5.52336,2.47289 -5.52336,5.52336c0,3.05047 2.47289,5.52336 5.52336,5.52336zM257.75359,290.14527c1.97494,0 3.57595,-1.60101 3.57595,-3.57595c0,-1.97494 -1.60101,-3.57595 -3.57595,-3.57595c-1.97494,0 -3.57595,1.60101 -3.57595,3.57595c0,1.97494 1.60101,3.57595 3.57595,3.57595zM264.93661,284.44985c2.69932,0 4.88755,-2.18823 4.88755,-4.88755c0,-2.69932 -2.18823,-4.88755 -4.88755,-4.88755c-2.69932,0 -4.88755,2.18823 -4.88755,4.88755c0,2.69932 2.18823,4.88755 4.88755,4.88755zM267.888,271.38428c1.8469,0 3.3441,-1.4972 3.3441,-3.3441c0,-1.8469 -1.4972,-3.3441 -3.3441,-3.3441c-1.8469,0 -3.3441,1.4972 -3.3441,3.3441c0,1.8469 1.4972,3.3441 3.3441,3.3441zM276.40337,282.53144c2.82541,0 5.11586,-2.29045 5.11586,-5.11586c0,-2.82541 -2.29045,-5.11586 -5.11586,-5.11586c-2.82541,0 -5.11586,2.29045 -5.11586,5.11586c0,2.82541 2.29045,5.11586 5.11586,5.11586zM279.53335,290.56756c2.06862,0 3.74557,-1.67695 3.74557,-3.74557c0,-2.06862 -1.67695,-3.74557 -3.74557,-3.74557c-2.06862,0 -3.74557,1.67695 -3.74557,3.74557c0,2.06862 1.67695,3.74557 3.74557,3.74557zM271.63238,288.99897c1.79533,0 3.25074,-1.4554 3.25074,-3.25074c0,-1.79533 -1.4554,-3.25074 -3.25074,-3.25074c-1.79533,0 -3.25074,1.4554 -3.25074,3.25074c0,1.79533 1.4554,3.25074 3.25074,3.25074zM280.17273,272.10526c1.86037,0 3.36849,-1.50812 3.36849,-3.36849c0,-1.86037 -1.50812,-3.36849 -3.36849,-3.36849c-1.86037,0 -3.36849,1.50812 -3.36849,3.36849c0,1.86037 1.50812,3.36849 3.36849,3.36849zM264.24866,290.46083c1.19689,0 2.16716,-0.97027 2.16716,-2.16716c0,-1.19689 -0.97027,-2.16716 -2.16716,-2.16716c-1.19689,0 -2.16716,0.97027 -2.16716,2.16716c0,1.19689 0.97027,2.16716 2.16716,2.16716zM233.05046,289.95877c3.38162,0 6.12296,-2.74135 6.12296,-6.12296c0,-3.38162 -2.74135,-6.12296 -6.12296,-6.12296c-3.38162,0 -6.12296,2.74135 -6.12296,6.12296c0,3.38162 2.74135,6.12296 6.12296,6.12296zM232.55505,276.74583c2.19899,0 3.98163,-1.78264 3.98163,-3.98163c0,-2.19899 -1.78264,-3.98163 -3.98163,-3.98163c-2.19899,0 -3.98163,1.78264 -3.98163,3.98163c0,2.19899 1.78264,3.98163 3.98163,3.98163zM239.73016,270.47632c2.693,0 4.87611,-2.18311 4.87611,-4.87611c0,-2.693 -2.18311,-4.87611 -4.87611,-4.87611c-2.693,0 -4.87611,2.18311 -4.87611,4.87611c0,2.693 2.18311,4.87611 4.87611,4.87611zM245.01195,278.16088c2.11309,0 3.82609,-1.713 3.82609,-3.82609c0,-2.11309 -1.713,-3.82609 -3.82609,-3.82609c-2.11309,0 -3.82609,1.713 -3.82609,3.82609c0,2.11309 1.713,3.82609 3.82609,3.82609zM248.26367,288.32832c2.693,0 4.87611,-2.18311 4.87611,-4.87611c0,-2.693 -2.18311,-4.87611 -4.87611,-4.87611c-2.693,0 -4.87611,2.18311 -4.87611,4.87611c0,2.693 2.18311,4.87611 4.87611,4.87611zM247.39768,264.68554c1.24494,0 2.25417,-1.00923 2.25417,-2.25417c0,-1.24494 -1.00923,-2.25417 -2.25417,-2.25417c-1.24494,0 -2.25417,1.00923 -2.25417,2.25417c0,1.24494 1.00923,2.25417 2.25417,2.25417zM241.87026,290.52908c1.2108,0 2.19235,-0.98155 2.19235,-2.19235c0,-1.2108 -0.98155,-2.19235 -2.19235,-2.19235c-1.2108,0 -2.19235,0.98155 -2.19235,2.19235c0,1.2108 0.98155,2.19235 2.19235,2.19235zM304.7682,273.3881c2.72036,0 4.92566,-2.2053 4.92566,-4.92566c0,-2.72036 -2.2053,-4.92566 -4.92566,-4.92566c-2.72036,0 -4.92566,2.2053 -4.92566,4.92566c0,2.72036 2.2053,4.92566 4.92566,4.92566zM307.06743,262.79608c2.95323,0 5.3473,-2.39407 5.3473,-5.3473c0,-2.95323 -2.39407,-5.3473 -5.3473,-5.3473c-2.95323,0 -5.3473,2.39407 -5.3473,5.3473c0,2.95323 2.39407,5.3473 5.3473,5.3473zM308.02379,283.61496c2.693,0 4.87611,-2.18311 4.87611,-4.87611c0,-2.693 -2.18311,-4.87611 -4.87611,-4.87611c-2.693,0 -4.87611,2.18311 -4.87611,4.87611c0,2.693 2.18311,4.87611 4.87611,4.87611zM316.39584,276.17816c2.70457,0 4.89706,-2.19249 4.89706,-4.89706c0,-2.70457 -2.19249,-4.89706 -4.89706,-4.89706c-2.70457,0 -4.89706,2.19249 -4.89706,4.89706c0,2.70457 2.19249,4.89706 4.89706,4.89706zM319.99255,262.66406c2.81337,0 5.09407,-2.28069 5.09407,-5.09407c0,-2.81337 -2.28069,-5.09407 -5.09407,-5.09407c-2.81337,0 -5.09407,2.28069 -5.09407,5.09407c0,2.81337 2.28069,5.09407 5.09407,5.09407zM313.49681,265.94748c1.19689,0 2.16716,-0.97027 2.16716,-2.16716c0,-1.19689 -0.97027,-2.16716 -2.16716,-2.16716c-1.19689,0 -2.16716,0.97027 -2.16716,2.16716c0,1.19689 0.97027,2.16716 2.16716,2.16716zM302.76354,288.23012c1.50248,0 2.72048,-1.218 2.72048,-2.72048c0,-1.50248 -1.218,-2.72048 -2.72048,-2.72048c-1.50248,0 -2.72048,1.218 -2.72048,2.72048c0,1.50248 1.218,2.72048 2.72048,2.72048zM284.53159,281.05446c1.19689,0 2.16716,-0.97027 2.16716,-2.16716c0,-1.19689 -0.97027,-2.16716 -2.16716,-2.16716c-1.19689,0 -2.16716,0.97027 -2.16716,2.16716c0,1.19689 0.97027,2.16716 2.16716,2.16716zM289.59485,275.58062c2.88049,0 5.21559,-2.3351 5.21559,-5.21559c0,-2.88049 -2.3351,-5.21559 -5.21559,-5.21559c-2.88049,0 -5.21559,2.3351 -5.21559,5.21559c0,2.88049 2.3351,5.21559 5.21559,5.21559zM290.82306,289.23234c2.79866,0 5.06743,-2.26876 5.06743,-5.06743c0,-2.79866 -2.26876,-5.06743 -5.06743,-5.06743c-2.79866,0 -5.06743,2.26876 -5.06743,5.06743c0,2.79866 2.26876,5.06743 5.06743,5.06743zM295.55435,256.83292c1.46343,0 2.64977,-1.18634 2.64977,-2.64977c0,-1.46343 -1.18634,-2.64977 -2.64977,-2.64977c-1.46343,0 -2.64977,1.18634 -2.64977,2.64977c0,1.46343 1.18634,2.64977 2.64977,2.64977zM296.91634,266.32544c2.29971,0 4.164,-1.86429 4.164,-4.164c0,-2.29971 -1.86429,-4.164 -4.164,-4.164c-2.29971,0 -4.164,1.86429 -4.164,4.164c0,2.29971 1.86429,4.164 4.164,4.164zM298.41481,281.72433c2.07201,0 3.75171,-1.6797 3.75171,-3.75171c0,-2.07201 -1.6797,-3.75171 -3.75171,-3.75171c-2.07201,0 -3.75171,1.6797 -3.75171,3.75171c0,2.07201 1.6797,3.75171 3.75171,3.75171zM254.0429,244.95778c3.10945,0 5.63017,-2.52072 5.63017,-5.63017c0,-3.10945 -2.52072,-5.63017 -5.63017,-5.63017c-3.10945,0 -5.63017,2.52072 -5.63017,5.63017c0,3.10945 2.52072,5.63017 5.63017,5.63017zM241.799,245.38767c3.07099,0 5.56051,-2.48952 5.56051,-5.56051c0,-3.07099 -2.48952,-5.56051 -5.56051,-5.56051c-3.07099,0 -5.56051,2.48952 -5.56051,5.56051c0,3.07099 2.48952,5.56051 5.56051,5.56051zM262.78492,240.73677c1.19689,0 2.16716,-0.97027 2.16716,-2.16716c0,-1.19689 -0.97027,-2.16716 -2.16716,-2.16716c-1.19689,0 -2.16716,0.97027 -2.16716,2.16716c0,1.19689 0.97027,2.16716 2.16716,2.16716zM269.0907,244.58353c1.81934,0 3.29422,-1.47487 3.29422,-3.29422c0,-1.81934 -1.47487,-3.29422 -3.29422,-3.29422c-1.81934,0 -3.29422,1.47487 -3.29422,3.29422c0,1.81934 1.47487,3.29422 3.29422,3.29422zM234.91112,247.31754c1.19689,0 2.16716,-0.97027 2.16716,-2.16716c0,-1.19689 -0.97027,-2.16716 -2.16716,-2.16716c-1.19689,0 -2.16716,0.97027 -2.16716,2.16716c0,1.19689 0.97027,2.16716 2.16716,2.16716zM259.6337,249.49521c1.49753,0 2.71153,-1.21399 2.71153,-2.71153c0,-1.49753 -1.21399,-2.71153 -2.71153,-2.71153c-1.49753,0 -2.71153,1.21399 -2.71153,2.71153c0,1.49753 1.21399,2.71153 2.71153,2.71153zM308.94419,244.11513c2.90571,0 5.26125,-2.35554 5.26125,-5.26125c0,-2.90571 -2.35554,-5.26125 -5.26125,-5.26125c-2.90571,0 -5.26125,2.35554 -5.26125,5.26125c0,2.90571 2.35554,5.26125 5.26125,5.26125zM289.01277,244.51572c2.90734,0 5.2642,-2.35686 5.2642,-5.2642c0,-2.90734 -2.35686,-5.2642 -5.2642,-5.2642c-2.90734,0 -5.2642,2.35686 -5.2642,5.2642c0,2.90734 2.35686,5.2642 5.2642,5.2642zM300.6971,252.25342c2.76791,0 5.01174,-2.24383 5.01174,-5.01174c0,-2.76791 -2.24383,-5.01174 -5.01174,-5.01174c-2.76791,0 -5.01174,2.24383 -5.01174,5.01174c0,2.76791 2.24383,5.01174 5.01174,5.01174zM316.1481,252.19505c2.693,0 4.87611,-2.18311 4.87611,-4.87611c0,-2.693 -2.18311,-4.87611 -4.87611,-4.87611c-2.693,0 -4.87611,2.18311 -4.87611,4.87611c0,2.693 2.18311,4.87611 4.87611,4.87611zM298.15855,239.95974c1.79533,0 3.25074,-1.4554 3.25074,-3.25074c0,-1.79533 -1.4554,-3.25074 -3.25074,-3.25074c-1.79533,0 -3.25074,1.4554 -3.25074,3.25074c0,1.79533 1.4554,3.25074 3.25074,3.25074zM279.01164,237.82102c1.25625,0 2.27464,-1.01839 2.27464,-2.27464c0,-1.25625 -1.01839,-2.27464 -2.27464,-2.27464c-1.25625,0 -2.27464,1.01839 -2.27464,2.27464c0,1.25625 1.01839,2.27464 2.27464,2.27464zM280.02233,243.25873c1.25762,0 2.27711,-1.0195 2.27711,-2.27711c0,-1.25762 -1.0195,-2.27711 -2.27711,-2.27711c-1.25762,0 -2.27711,1.0195 -2.27711,2.27711c0,1.25762 1.0195,2.27711 2.27711,2.27711zM306.38433,194.11452c2.72556,0 4.93506,-2.2095 4.93506,-4.93506c0,-2.72556 -2.2095,-4.93506 -4.93506,-4.93506c-2.72556,0 -4.93506,2.2095 -4.93506,4.93506c0,2.72556 2.2095,4.93506 4.93506,4.93506zM316.12182,194.67523c2.09491,0 3.79318,-1.69827 3.79318,-3.79318c0,-2.09491 -1.69827,-3.79318 -3.79318,-3.79318c-2.09491,0 -3.79318,1.69827 -3.79318,3.79318c0,2.09491 1.69827,3.79318 3.79318,3.79318zM319.73701,185.7028c1.26189,0 2.28485,-1.02296 2.28485,-2.28485c0,-1.26189 -1.02296,-2.28485 -2.28485,-2.28485c-1.26189,0 -2.28485,1.02296 -2.28485,2.28485c0,1.26189 1.02296,2.28485 2.28485,2.28485zM325.06422,199.37731c2.693,0 4.87611,-2.18311 4.87611,-4.87611c0,-2.693 -2.18311,-4.87611 -4.87611,-4.87611c-2.693,0 -4.87611,2.18311 -4.87611,4.87611c0,2.693 2.18311,4.87611 4.87611,4.87611zM308.72804,183.61449c1.19689,0 2.16716,-0.97027 2.16716,-2.16716c0,-1.19689 -0.97027,-2.16716 -2.16716,-2.16716c-1.19689,0 -2.16716,0.97027 -2.16716,2.16716c0,1.19689 0.97027,2.16716 2.16716,2.16716zM262.07265,224.5634c2.79705,0 5.06451,-2.26746 5.06451,-5.06451c0,-2.79705 -2.26746,-5.06451 -5.06451,-5.06451c-2.79705,0 -5.06451,2.26746 -5.06451,5.06451c0,2.79705 2.26746,5.06451 5.06451,5.06451zM248.32167,219.54637c1.27516,0 2.30887,-1.03372 2.30887,-2.30887c0,-1.27516 -1.03372,-2.30887 -2.30887,-2.30887c-1.27516,0 -2.30887,1.03372 -2.30887,2.30887c0,1.27516 1.03372,2.30887 2.30887,2.30887zM243.41143,228.6338c2.693,0 4.87611,-2.18311 4.87611,-4.87611c0,-2.693 -2.18311,-4.87611 -4.87611,-4.87611c-2.693,0 -4.87611,2.18311 -4.87611,4.87611c0,2.693 2.18311,4.87611 4.87611,4.87611zM253.47485,230.80471c1.8856,0 3.41418,-1.52858 3.41418,-3.41418c0,-1.8856 -1.52858,-3.41418 -3.41418,-3.41418c-1.8856,0 -3.41418,1.52858 -3.41418,3.41418c0,1.8856 1.52858,3.41418 3.41418,3.41418zM258.75103,233.45292c1.19689,0 2.16716,-0.97027 2.16716,-2.16716c0,-1.19689 -0.97027,-2.16716 -2.16716,-2.16716c-1.19689,0 -2.16716,0.97027 -2.16716,2.16716c0,1.19689 0.97027,2.16716 2.16716,2.16716zM247.00002,234.99442c1.2405,0 2.24613,-1.00563 2.24613,-2.24613c0,-1.2405 -1.00563,-2.24613 -2.24613,-2.24613c-1.2405,0 -2.24613,1.00563 -2.24613,2.24613c0,1.2405 1.00563,2.24613 2.24613,2.24613zM254.25197,218.93098c1.26021,0 2.28181,-1.0216 2.28181,-2.28181c0,-1.26021 -1.0216,-2.28181 -2.28181,-2.28181c-1.26021,0 -2.28181,1.0216 -2.28181,2.28181c0,1.26021 1.0216,2.28181 2.28181,2.28181zM295.56149,230.38328c3.23294,0 5.85377,-2.62083 5.85377,-5.85377c0,-3.23294 -2.62083,-5.85377 -5.85377,-5.85377c-3.23294,0 -5.85377,2.62083 -5.85377,5.85377c0,3.23294 2.62083,5.85377 5.85377,5.85377zM307.08858,231.45664c2.693,0 4.87611,-2.18311 4.87611,-4.87611c0,-2.693 -2.18311,-4.87611 -4.87611,-4.87611c-2.693,0 -4.87611,2.18311 -4.87611,4.87611c0,2.693 2.18311,4.87611 4.87611,4.87611zM273.69417,227.59889c1.84627,0 3.34297,-1.4967 3.34297,-3.34297c0,-1.84627 -1.4967,-3.34297 -3.34297,-3.34297c-1.84627,0 -3.34297,1.4967 -3.34297,3.34297c0,1.84627 1.4967,3.34297 3.34297,3.34297zM283.71978,233.79686c2.693,0 4.87611,-2.18311 4.87611,-4.87611c0,-2.693 -2.18311,-4.87611 -4.87611,-4.87611c-2.693,0 -4.87611,2.18311 -4.87611,4.87611c0,2.693 2.18311,4.87611 4.87611,4.87611zM268.96301,237.01841c2.693,0 4.87611,-2.18311 4.87611,-4.87611c0,-2.693 -2.18311,-4.87611 -4.87611,-4.87611c-2.693,0 -4.87611,2.18311 -4.87611,4.87611c0,2.693 2.18311,4.87611 4.87611,4.87611zM267.38421,206.32587c1.67847,0 3.03914,-1.36067 3.03914,-3.03914c0,-1.67847 -1.36067,-3.03914 -3.03914,-3.03914c-1.67847,0 -3.03914,1.36067 -3.03914,3.03914c0,1.67847 1.36067,3.03914 3.03914,3.03914zM245.47558,214.2151c3.15879,0 5.7195,-2.56071 5.7195,-5.7195c0,-3.15879 -2.56071,-5.7195 -5.7195,-5.7195c-3.15879,0 -5.7195,2.56071 -5.7195,5.7195c0,3.15879 2.56071,5.7195 5.7195,5.7195zM259.61393,213.73677c2.693,0 4.87611,-2.18311 4.87611,-4.87611c0,-2.693 -2.18311,-4.87611 -4.87611,-4.87611c-2.693,0 -4.87611,2.18311 -4.87611,4.87611c0,2.693 2.18311,4.87611 4.87611,4.87611zM239.50923,217.21839c1.19689,0 2.16716,-0.97027 2.16716,-2.16716c0,-1.19689 -0.97027,-2.16716 -2.16716,-2.16716c-1.19689,0 -2.16716,0.97027 -2.16716,2.16716c0,1.19689 0.97027,2.16716 2.16716,2.16716zM315.32878,208.32915c2.86217,0 5.18242,-2.32025 5.18242,-5.18242c0,-2.86217 -2.32025,-5.18242 -5.18242,-5.18242c-2.86217,0 -5.18242,2.32025 -5.18242,5.18242c0,2.86217 2.32025,5.18242 5.18242,5.18242zM305.39749,206.88514c1.85777,0 3.36379,-1.50602 3.36379,-3.36379c0,-1.85777 -1.50602,-3.36379 -3.36379,-3.36379c-1.85777,0 -3.36379,1.50602 -3.36379,3.36379c0,1.85777 1.50602,3.36379 3.36379,3.36379zM325.12314,213.10981c2.693,0 4.87611,-2.18311 4.87611,-4.87611c0,-2.693 -2.18311,-4.87611 -4.87611,-4.87611c-2.693,0 -4.87611,2.18311 -4.87611,4.87611c0,2.693 2.18311,4.87611 4.87611,4.87611zM307.69417,217.45077c2.72738,0 4.93836,-2.21097 4.93836,-4.93836c0,-2.72738 -2.21097,-4.93836 -4.93836,-4.93836c-2.72738,0 -4.93836,2.21097 -4.93836,4.93836c0,2.72738 2.21097,4.93836 4.93836,4.93836zM320.48604,223.07505c2.76866,0 5.0131,-2.24444 5.0131,-5.0131c0,-2.76866 -2.24444,-5.0131 -5.0131,-5.0131c-2.76866,0 -5.0131,2.24444 -5.0131,5.0131c0,2.76866 2.24444,5.0131 5.0131,5.0131zM299.7001,216.44911c1.24465,0 2.25363,-1.00898 2.25363,-2.25363c0,-1.24465 -1.00898,-2.25363 -2.25363,-2.25363c-1.24465,0 -2.25363,1.00898 -2.25363,2.25363c0,1.24465 1.00898,2.25363 2.25363,2.25363zM299.07552,207.23279c1.19689,0 2.16716,-0.97027 2.16716,-2.16716c0,-1.19689 -0.97027,-2.16716 -2.16716,-2.16716c-1.19689,0 -2.16716,0.97027 -2.16716,2.16716c0,1.19689 0.97027,2.16716 2.16716,2.16716zM285.12011,184.43043c1.20922,0 2.18949,-0.98027 2.18949,-2.18949c0,-1.20922 -0.98027,-2.18949 -2.18949,-2.18949c-1.20922,0 -2.18949,0.98027 -2.18949,2.18949c0,1.20922 0.98027,2.18949 2.18949,2.18949zM288.22573,199.59053c2.82549,0 5.11599,-2.29051 5.11599,-5.11599c0,-2.82549 -2.29051,-5.11599 -5.11599,-5.11599c-2.82549,0 -5.11599,2.29051 -5.11599,5.11599c0,2.82549 2.29051,5.11599 5.11599,5.11599zM288.96514,188.41435c1.19689,0 2.16716,-0.97027 2.16716,-2.16716c0,-1.19689 -0.97027,-2.16716 -2.16716,-2.16716c-1.19689,0 -2.16716,0.97027 -2.16716,2.16716c0,1.19689 0.97027,2.16716 2.16716,2.16716zM289.32722,181.13033c1.19689,0 2.16716,-0.97027 2.16716,-2.16716c0,-1.19689 -0.97027,-2.16716 -2.16716,-2.16716c-1.19689,0 -2.16716,0.97027 -2.16716,2.16716c0,1.19689 0.97027,2.16716 2.16716,2.16716zM296.54799,188.30189c2.75302,0 4.98479,-2.23177 4.98479,-4.98479c0,-2.75302 -2.23177,-4.98479 -4.98479,-4.98479c-2.75302,0 -4.98479,2.23177 -4.98479,4.98479c0,2.75302 2.23177,4.98479 4.98479,4.98479zM298.06999,201.12103c2.25309,0 4.07958,-1.82649 4.07958,-4.07958c0,-2.25309 -1.82649,-4.07958 -4.07958,-4.07958c-2.25309,0 -4.07958,1.82649 -4.07958,4.07958c0,2.25309 1.82649,4.07958 4.07958,4.07958zM246.19134,199.00604c3.02268,0 5.47304,-2.45036 5.47304,-5.47304c0,-3.02268 -2.45036,-5.47304 -5.47304,-5.47304c-3.02268,0 -5.47304,2.45036 -5.47304,5.47304c0,3.02268 2.45036,5.47304 5.47304,5.47304zM250.69037,187.89217c3.00453,0 5.44018,-2.43565 5.44018,-5.44018c0,-3.00453 -2.43565,-5.44018 -5.44018,-5.44018c-3.00453,0 -5.44018,2.43565 -5.44018,5.44018c0,3.00453 2.43565,5.44018 5.44018,5.44018zM264.83448,196.02174c2.76135,0 4.99985,-2.23851 4.99985,-4.99985c0,-2.76135 -2.23851,-4.99985 -4.99985,-4.99985c-2.76135,0 -4.99985,2.23851 -4.99985,4.99985c0,2.76135 2.23851,4.99985 4.99985,4.99985zM273.47328,201.03603c2.06534,0 3.73963,-1.67429 3.73963,-3.73963c0,-2.06534 -1.67429,-3.73963 -3.73963,-3.73963c-2.06534,0 -3.73963,1.67429 -3.73963,3.73963c0,2.06534 1.67429,3.73963 3.73963,3.73963zM275.24631,192.68296c2.72674,0 4.93719,-2.21045 4.93719,-4.93719c0,-2.72674 -2.21045,-4.93719 -4.93719,-4.93719c-2.72674,0 -4.93719,2.21045 -4.93719,4.93719c0,2.72674 2.21045,4.93719 4.93719,4.93719zM260.34571,186.20972c1.79533,0 3.25074,-1.4554 3.25074,-3.25074c0,-1.79533 -1.4554,-3.25074 -3.25074,-3.25074c-1.79533,0 -3.25074,1.4554 -3.25074,3.25074c0,1.79533 1.4554,3.25074 3.25074,3.25074zM254.8011,201.2549c1.79533,0 3.25074,-1.4554 3.25074,-3.25074c0,-1.79533 -1.4554,-3.25074 -3.25074,-3.25074c-1.79533,0 -3.25074,1.4554 -3.25074,3.25074c0,1.79533 1.4554,3.25074 3.25074,3.25074zM280.43817,200.19502c1.257,0 2.276,-1.019 2.276,-2.276c0,-1.257 -1.019,-2.276 -2.276,-2.276c-1.257,0 -2.276,1.019 -2.276,2.276c0,1.257 1.019,2.276 2.276,2.276zM269.09606,184.16257c1.85703,0 3.36245,-1.50542 3.36245,-3.36245c0,-1.85703 -1.50542,-3.36245 -3.36245,-3.36245c-1.85703,0 -3.36245,1.50542 -3.36245,3.36245c0,1.85703 1.50542,3.36245 3.36245,3.36245z" data-paper-data="{&quot;isPathIcon&quot;:true}" id="element-id-24689"></path></g><g data-paper-data="{&quot;isPrimaryText&quot;:true}" fill-rule="nonzero" id="element-id-19323"><path d="M174.47089,212.60544c0,0 0.26734,-3.65037 -3.95111,-4.43441c-3.82106,-0.71018 -5.85242,1.03111 -6.73304,5.76922l-1.55104,8.34519l21.39793,3.97703l1.56808,-8.4369c0.98858,-5.31892 -0.41942,-7.95244 -4.66844,-8.74216c-4.89096,-0.90903 -6.06239,3.52204 -6.06239,3.52204zM183.09113,217.78117l-1.00562,5.41062l-8.16178,-1.51695l1.00562,-5.41062c0.67041,-3.60708 2.17723,-4.90825 5.08123,-4.36851c2.87344,0.53406 3.76233,2.21724 3.08055,5.88546zM164.78375,219.97608l0.98289,-5.28835c0.57383,-3.08742 1.8461,-4.14755 4.35271,-3.68167c2.56775,0.47724 3.4296,1.96565 2.86145,5.0225l-0.98289,5.28835z" data-paper-data="{&quot;glyphName&quot;:&quot;B&quot;,&quot;glyphIndex&quot;:0,&quot;firstGlyphOfWord&quot;:true,&quot;word&quot;:1}" fill="#ffffff" id="element-id-48102"></path><path d="M183.16693,196.25458c5.28248,2.7807 8.72612,1.71223 11.49234,-3.54273c2.75173,-5.22745 1.68326,-8.6711 -3.59921,-11.4518l-12.27075,-6.45933l-1.27449,2.42113l12.27075,6.45933c3.85181,2.02759 4.66548,4.35329 2.78272,7.92997c-1.89725,3.60419 -4.27507,4.24988 -8.12687,2.22229l-12.27075,-6.45933l-1.27449,2.42113z" data-paper-data="{&quot;glyphName&quot;:&quot;U&quot;,&quot;glyphIndex&quot;:1,&quot;word&quot;:1}" fill="#ffffff" id="element-id-30437"></path><path d="M189.40727,160.44352l16.23181,14.49886l1.82271,-2.04057l-16.23181,-14.49886z" data-paper-data="{&quot;glyphName&quot;:&quot;I&quot;,&quot;glyphIndex&quot;:2,&quot;word&quot;:1}" fill="#ffffff" id="element-id-26042"></path><path d="M226.4948,154.32305l-8.69766,6.11728l-11.16135,-15.86942l-2.23799,1.57404l12.52074,17.80223l10.93565,-7.69131z" data-paper-data="{&quot;glyphName&quot;:&quot;L&quot;,&quot;glyphIndex&quot;:3,&quot;word&quot;:1}" fill="#ffffff" id="element-id-51842"></path><path d="M250.04904,135.43268c-2.4759,-7.20394 -6.38917,-9.31109 -13.03444,-7.02719l-7.05692,2.42537l7.07401,20.58268l7.05692,-2.42537c6.64527,-2.28389 8.43634,-6.35155 5.96043,-13.55549zM237.61449,130.53358c4.88104,-1.67755 7.74868,0.06567 9.7294,5.82882c1.99083,5.79255 0.79063,8.90096 -4.0904,10.57851l-4.35177,1.49565l-5.63899,-16.40734z" data-paper-data="{&quot;glyphName&quot;:&quot;D&quot;,&quot;glyphIndex&quot;:4,&quot;word&quot;:1}" fill="#ffffff" id="element-id-98806"></path><path d="M264.00457,135.94879c0.15168,5.96773 2.76518,8.45167 8.70183,8.30078c5.90557,-0.1501 8.38951,-2.7636 8.23783,-8.73133l-0.35234,-13.86254l-2.73521,0.06952l0.35234,13.86254c0.1106,4.35147 -1.522,6.19688 -5.56266,6.29958c-4.07173,0.10349 -5.79598,-1.6566 -5.90658,-6.00807l-0.35234,-13.86254l-2.73521,0.06952z" data-paper-data="{&quot;glyphName&quot;:&quot;U&quot;,&quot;glyphIndex&quot;:5,&quot;word&quot;:1}" fill="#ffffff" id="element-id-98480"></path><path d="M312.73374,135.18708c1.18727,-4.05841 -0.20687,-7.15506 -5.30972,-8.64787l-8.44507,-2.47057l-6.11095,20.88886l2.62603,0.76823l2.29597,-7.84824l5.81904,1.70234c5.10285,1.49282 7.94616,-0.36418 9.1247,-4.39275zM310.10771,134.41885c-0.85553,2.92444 -2.656,3.98508 -5.99821,3.00733l-5.69968,-1.66742l2.57533,-8.80316l5.69968,1.66742c3.34222,0.97775 4.29588,2.81171 3.42288,5.79583z" data-paper-data="{&quot;glyphName&quot;:&quot;P&quot;,&quot;glyphIndex&quot;:6,&quot;word&quot;:1}" fill="#ffffff" id="element-id-71812"></path><path d="M338.12817,140.53314c-6.02282,-4.02584 -10.52561,-2.88443 -15.00069,3.81047c-4.47508,6.6949 -3.80806,11.29197 2.21476,15.31781c6.02282,4.02584 10.49976,2.86715 14.97484,-3.82775c4.47508,-6.6949 3.83391,-11.27469 -2.18891,-15.30053zM336.81502,142.49767c4.39433,2.93731 4.74368,6.38708 1.1498,11.76368c-3.59388,5.3766 -6.9151,6.37285 -11.30943,3.43555c-4.39433,-2.93731 -4.74368,-6.38708 -1.1498,-11.76368c3.59388,-5.3766 6.9151,-6.37285 11.30943,-3.43555z" data-paper-data="{&quot;glyphName&quot;:&quot;O&quot;,&quot;glyphIndex&quot;:7,&quot;word&quot;:1}" fill="#ffffff" id="element-id-33305"></path><path d="M358.90797,158.55485l-16.25796,14.46952l1.81903,2.04386l16.25796,-14.46952z" data-paper-data="{&quot;glyphName&quot;:&quot;I&quot;,&quot;glyphIndex&quot;:8,&quot;word&quot;:1}" fill="#ffffff" id="element-id-3437"></path><path d="M378.21381,188.20869l-16.03323,8.32223l10.8193,-18.36714l-1.50402,-2.89757l-19.31714,10.02678l1.20321,2.31806l16.03323,-8.32223l-10.83363,18.33955l1.51834,2.92517l19.31714,-10.02678z" data-paper-data="{&quot;glyphName&quot;:&quot;N&quot;,&quot;glyphIndex&quot;:9,&quot;word&quot;:1}" fill="#ffffff" id="element-id-42678"></path><path d="M387.77056,222.30137l-2.98277,-16.04845l-2.3232,0.43179l1.23856,6.66393l-19.07473,3.54523l0.49997,2.69003l19.07473,-3.54523l1.24424,6.6945z" data-paper-data="{&quot;glyphName&quot;:&quot;T&quot;,&quot;glyphIndex&quot;:10,&quot;lastGlyphOfWord&quot;:true,&quot;word&quot;:1}" fill="#ffffff" id="element-id-92869"></path></g><g data-paper-data="{&quot;isSecondaryText&quot;:true}" fill-rule="nonzero" id="element-id-96841"><path d="M169.15139,246.22834l0.29102,2.2678c0.21311,1.66067 0.90206,2.36181 2.44666,2.1636c0.9464,-0.12145 1.49257,-0.74513 1.55269,-1.47888c0.43595,0.49765 0.8659,0.52416 1.28553,0.47031c1.0714,-0.13749 1.72055,-1.01943 1.56129,-2.26046l-0.26238,-2.04459zM172.40649,247.05395l0.13405,1.04461c0.11458,0.89283 -0.16927,1.15614 -0.84783,1.24322c-0.65177,0.08364 -1.00938,-0.01567 -1.13197,-0.97101l-0.13634,-1.06247zM175.23504,247.5259c0.07791,0.60713 -0.3401,0.81505 -0.6883,0.85973c-0.43749,0.05614 -0.83448,-0.13795 -0.89979,-0.64686l-0.10541,-0.82141l1.58924,-0.20394z" data-paper-data="{&quot;glyphName&quot;:&quot;B&quot;,&quot;glyphIndex&quot;:0,&quot;firstGlyphOfWord&quot;:true,&quot;word&quot;:1}" id="element-id-98923"></path><path d="M173.47767,258.98127c-0.64114,0.14401 -1.13086,-0.10579 -1.29263,-0.82597c-0.16177,-0.72018 0.18789,-1.09395 0.82903,-1.23796l4.68997,-1.05346l-0.27224,-1.21201l-4.75144,1.06727c-1.39645,0.31367 -1.88639,1.25405 -1.5668,2.67685c0.31959,1.4228 1.17844,2.12479 2.57489,1.81112l4.75144,-1.06727l-0.27224,-1.21201z" data-paper-data="{&quot;glyphName&quot;:&quot;U&quot;,&quot;glyphIndex&quot;:1,&quot;word&quot;:1}" id="element-id-72109"></path><path d="M180.1637,265.22481l-0.37159,-1.19476l-6.61847,2.05847l0.37159,1.19476z" data-paper-data="{&quot;glyphName&quot;:&quot;I&quot;,&quot;glyphIndex&quot;:2,&quot;word&quot;:1}" id="element-id-59563"></path><path d="M177.91741,275.85121l-0.99025,-2.4833l5.38467,-2.14721l-0.46345,-1.16222l-6.43819,2.56732l1.4537,3.64552z" data-paper-data="{&quot;glyphName&quot;:&quot;L&quot;,&quot;glyphIndex&quot;:3,&quot;word&quot;:1}" id="element-id-63988"></path><path d="M185.21851,277.96285l-6.17975,3.13881l1.03132,2.03049c0.74598,1.46869 1.6098,1.83763 2.88588,1.18949l2.52005,-1.27998c1.30818,-0.66445 1.53202,-1.55554 0.77381,-3.04831zM180.60043,281.69163l4.16531,-2.11564l0.48101,0.94703c0.43617,0.85874 0.19642,1.14206 -0.38945,1.43963l-2.40769,1.22291c-0.58587,0.29758 -0.96868,0.23961 -1.37632,-0.56296z" data-paper-data="{&quot;glyphName&quot;:&quot;D&quot;,&quot;glyphIndex&quot;:4,&quot;lastGlyphOfWord&quot;:true,&quot;word&quot;:1}" id="element-id-24383"></path><path d="M191.12304,297.01948c-0.53204,0.38565 -1.08062,0.34971 -1.51382,-0.24792c-0.4332,-0.59764 -0.25971,-1.07916 0.27233,-1.46481l3.89192,-2.82109l-0.72904,-1.00578l-3.94294,2.85807c-1.15883,0.83999 -1.23727,1.89743 -0.38144,3.07813c0.85584,1.18069 1.92219,1.48615 3.08102,0.64616l3.94294,-2.85807l-0.72904,-1.00578z" data-paper-data="{&quot;glyphName&quot;:&quot;U&quot;,&quot;glyphIndex&quot;:5,&quot;firstGlyphOfWord&quot;:true,&quot;lastGlyphOfWord&quot;:true,&quot;word&quot;:2}" id="element-id-45885"></path><path d="M203.01747,303.71331l-4.91018,4.89199l0.89581,0.89914l1.50494,-1.49936l0.33672,0.33797c1.16264,1.16696 2.20632,1.27074 3.22024,0.26058l0.45276,-0.45108c1.03943,-1.03558 0.91394,-2.01603 -0.26776,-3.20212zM201.3498,307.15372l1.75363,-1.74714l0.35578,0.3571c0.6798,0.68232 0.58995,1.07679 0.12444,1.54058l-0.36348,0.36213c-0.46551,0.46379 -0.89198,0.46936 -1.5273,-0.16833z" data-paper-data="{&quot;glyphName&quot;:&quot;P&quot;,&quot;glyphIndex&quot;:6,&quot;firstGlyphOfWord&quot;:true,&quot;word&quot;:3}" id="element-id-32484"></path><path d="M206.75539,316.73513c1.26455,1.05567 2.22694,1.02655 3.14417,-0.07216l1.8806,-2.2527c0.9403,-1.12635 0.79472,-2.03352 -0.49057,-3.1065c-1.28528,-1.07298 -2.16241,-1.01958 -3.1027,0.10678l-1.8806,2.2527c-0.91722,1.09871 -0.81545,2.01621 0.4491,3.07189zM207.45917,315.8921c-0.69101,-0.57687 -0.58002,-0.9767 -0.15891,-1.48114l1.79983,-2.15596c0.40381,-0.48371 0.79469,-0.68506 1.48571,-0.10819c0.73938,0.61725 0.60418,1.03204 0.20037,1.51575l-1.79983,2.15596c-0.42111,0.50444 -0.83615,0.65045 -1.52717,0.07358z" data-paper-data="{&quot;glyphName&quot;:&quot;O&quot;,&quot;glyphIndex&quot;:7,&quot;word&quot;:3}" id="element-id-16963"></path><path d="M218.09227,316.64943l-1.0216,-0.72241l-4.00185,5.6592l1.0216,0.72241z" data-paper-data="{&quot;glyphName&quot;:&quot;I&quot;,&quot;glyphIndex&quot;:8,&quot;word&quot;:3}" id="element-id-2112"></path><path d="M226.10517,321.69357l-1.06017,-0.62995l-0.83687,1.40841l-1.37834,2.58398l0.58239,-4.96261l-1.06017,-0.62995l-3.53602,5.9509l1.06017,0.62995l0.90125,-1.51674l1.24982,-2.31482l-0.49503,4.81558l1.03696,0.61616z" data-paper-data="{&quot;glyphName&quot;:&quot;N&quot;,&quot;glyphIndex&quot;:9,&quot;word&quot;:3}" id="element-id-21187"></path><path d="M233.7795,325.62027l-3.69942,-1.77846l-0.47972,0.99787l1.29804,0.62402l-2.51168,5.22462l1.11145,0.53432l2.51168,-5.22462l1.28993,0.62012z" data-paper-data="{&quot;glyphName&quot;:&quot;T&quot;,&quot;glyphIndex&quot;:10,&quot;lastGlyphOfWord&quot;:true,&quot;word&quot;:3}" id="element-id-83532"></path><path d="M246.8956,330.50866l-3.91312,-1.23938l-0.33431,1.05551l1.37303,0.43487l-1.75036,5.52643l1.17565,0.37236l1.75036,-5.52643l1.36444,0.43215z" data-paper-data="{&quot;glyphName&quot;:&quot;T&quot;,&quot;glyphIndex&quot;:11,&quot;firstGlyphOfWord&quot;:true,&quot;word&quot;:4}" id="element-id-24568"></path><path d="M251.69549,338.9137c1.60765,0.35916 2.4498,-0.10757 2.76185,-1.50438l0.63981,-2.86391c0.3199,-1.43195 -0.22505,-2.17167 -1.85905,-2.53671c-1.63401,-0.36504 -2.38924,0.08421 -2.70914,1.51616l-0.63981,2.86391c-0.31205,1.39681 0.19869,2.16578 1.80634,2.52494zM251.93493,337.84194c-0.8785,-0.19626 -0.96298,-0.60252 -0.81971,-1.24382l0.61233,-2.74092c0.13738,-0.61495 0.39261,-0.97298 1.27111,-0.77672c0.93999,0.21 1.00981,0.64065 0.87242,1.2556l-0.61233,2.74092c-0.14327,0.6413 -0.44532,0.96121 -1.32382,0.76495z" data-paper-data="{&quot;glyphName&quot;:&quot;O&quot;,&quot;glyphIndex&quot;:12,&quot;lastGlyphOfWord&quot;:true,&quot;word&quot;:4}" id="element-id-35489"></path><path d="M266.05805,341.06987l2.28212,0.13976c1.67116,0.10234 2.48914,-0.44278 2.58433,-1.99714c0.05832,-0.95238 -0.45178,-1.60589 -1.1612,-1.80265c0.57063,-0.33481 0.67735,-0.75214 0.70321,-1.17442c0.06603,-1.07817 -0.67841,-1.8813 -1.92729,-1.95778l-2.0575,-0.126zM267.47988,338.02755l1.05121,0.06438c0.89847,0.05502 1.10383,0.38324 1.06202,1.06608c-0.04017,0.65588 -0.20483,0.9885 -1.16619,0.92963l-1.06918,-0.06548zM268.47429,335.33784c0.61096,0.03741 0.73674,0.48702 0.71528,0.83742c-0.02696,0.44025 -0.29211,0.79377 -0.80424,0.76241l-0.82659,-0.05062l0.09794,-1.59928z" data-paper-data="{&quot;glyphName&quot;:&quot;B&quot;,&quot;glyphIndex&quot;:13,&quot;firstGlyphOfWord&quot;:true,&quot;word&quot;:5}" id="element-id-1814"></path><path d="M279.39562,339.21567c0.02077,0.65678 -0.31674,1.09074 -1.0545,1.11407c-0.73776,0.02333 -1.03904,-0.39042 -1.05981,-1.04721l-0.15194,-4.80442l-1.24159,0.03927l0.15394,4.8674c0.04524,1.43053 0.8766,2.0887 2.33412,2.0426c1.45752,-0.0461 2.30861,-0.75747 2.26337,-2.188l-0.15394,-4.8674l-1.24159,0.03927z" data-paper-data="{&quot;glyphName&quot;:&quot;U&quot;,&quot;glyphIndex&quot;:14,&quot;word&quot;:5}" id="element-id-99782"></path><path d="M286.7886,333.82732l-1.24344,0.13923l0.77129,6.88814l1.24344,-0.13923z" data-paper-data="{&quot;glyphName&quot;:&quot;I&quot;,&quot;glyphIndex&quot;:15,&quot;word&quot;:5}" id="element-id-87920"></path><path d="M296.79909,338.0424l-2.62579,0.50262l-1.08985,-5.69363l-1.2289,0.23523l1.30308,6.8076l3.85469,-0.73785z" data-paper-data="{&quot;glyphName&quot;:&quot;L&quot;,&quot;glyphIndex&quot;:16,&quot;word&quot;:5}" id="element-id-38171"></path><path d="M300.25385,331.2728l1.91302,6.66196l2.18893,-0.62856c1.5833,-0.45465 2.10899,-1.23309 1.71396,-2.60874l-0.78012,-2.7167c-0.40496,-1.41026 -1.23762,-1.79863 -2.84687,-1.33653zM303.04163,336.51291l-1.28943,-4.49034l1.02092,-0.29316c0.92575,-0.26584 1.15859,0.02319 1.33996,0.65477l0.74533,2.59557c0.18136,0.63159 0.05202,0.99652 -0.81317,1.24496z" data-paper-data="{&quot;glyphName&quot;:&quot;D&quot;,&quot;glyphIndex&quot;:17,&quot;lastGlyphOfWord&quot;:true,&quot;word&quot;:5}" id="element-id-76532"></path><path d="M320.08261,329.07683c0.27828,0.59528 0.13942,1.12721 -0.52925,1.4398c-0.66867,0.31259 -1.10878,0.05131 -1.38706,-0.54397l-2.03563,-4.35451l-1.12532,0.52606l2.06232,4.41159c0.60612,1.29657 1.62974,1.57323 2.95077,0.95568c1.32103,-0.61755 1.8223,-1.60706 1.21619,-2.90363l-2.06232,-4.41159l-1.12532,0.52606z" data-paper-data="{&quot;glyphName&quot;:&quot;U&quot;,&quot;glyphIndex&quot;:18,&quot;firstGlyphOfWord&quot;:true,&quot;word&quot;:6}" id="element-id-26176"></path><path d="M323.61146,321.84224l3.51665,5.97282l1.09372,-0.64396l-1.07783,-1.83063l0.41112,-0.24205c1.41951,-0.83577 1.77967,-1.82082 1.05351,-3.05417l-0.32426,-0.55074c-0.74443,-1.26438 -1.72528,-1.38675 -3.16806,-0.53728zM326.52882,324.31337l-1.25595,-2.13315l0.43439,-0.25576c0.82999,-0.48868 1.1897,-0.30352 1.5231,0.26273l0.26032,0.44214c0.3334,0.56625 0.2327,0.9807 -0.54299,1.43741z" data-paper-data="{&quot;glyphName&quot;:&quot;P&quot;,&quot;glyphIndex&quot;:19,&quot;lastGlyphOfWord&quot;:true,&quot;word&quot;:6}" id="element-id-43498"></path><path d="M337.96565,312.02975l0.37594,1.29036l0.55739,1.50255l-1.32184,-0.84429l-1.22054,-0.66017l-1.04694,0.83834l3.89783,2.04507l1.81734,2.26955l0.96262,-0.77082l-1.81734,-2.26955l-1.15751,-4.23938z" data-paper-data="{&quot;glyphName&quot;:&quot;Y&quot;,&quot;glyphIndex&quot;:20,&quot;firstGlyphOfWord&quot;:true,&quot;word&quot;:7}" id="element-id-6017"></path><path d="M348.44338,312.09654c1.19257,-1.13636 1.27303,-2.09582 0.28569,-3.13199l-2.02434,-2.12447c-1.01217,-1.06223 -1.93001,-1.02071 -3.14213,0.13428c-1.21212,1.15499 -1.25876,2.0325 -0.24659,3.09473l2.02434,2.12447c0.98733,1.03617 1.91046,1.03934 3.10303,-0.09702zM347.6858,311.30149c-0.65168,0.62096 -1.0363,0.46524 -1.4896,-0.01048l-1.93741,-2.03323c-0.43467,-0.45617 -0.59029,-0.86741 0.06139,-1.48837c0.69729,-0.66443 1.09403,-0.48295 1.5287,-0.02678l1.93741,2.03323c0.4533,0.47572 0.55119,0.90467 -0.10049,1.52563z" data-paper-data="{&quot;glyphName&quot;:&quot;O&quot;,&quot;glyphIndex&quot;:21,&quot;word&quot;:7}" id="element-id-29495"></path><path d="M354.54946,302.47313c0.49657,0.43036 0.58637,0.97274 0.10295,1.53053c-0.48342,0.5578 -0.99178,0.49839 -1.48836,0.06803l-3.63248,-3.14812l-0.81356,0.93873l3.68009,3.18939c1.08158,0.93736 2.12914,0.7732 3.08419,-0.32879c0.95505,-1.10199 1.00992,-2.20987 -0.07166,-3.14723l-3.68009,-3.18939l-0.81356,0.93873z" data-paper-data="{&quot;glyphName&quot;:&quot;U&quot;,&quot;glyphIndex&quot;:22,&quot;word&quot;:7}" id="element-id-18774"></path><path d="M363.09733,294.75818l-3.03107,-0.28811c0.26491,-0.83878 0.01863,-1.4556 -0.81778,-2.05013l-0.29348,-0.20861c-1.19591,-0.85007 -2.14854,-0.5664 -3.11856,0.79826l-1.01174,1.42335l5.64939,4.01569l0.71969,-1.01249l-1.98829,-1.41331l0.26597,-0.37418l2.78622,0.29077zM358.2685,295.36784l-1.79753,-1.27772l0.3077,-0.43288c0.55802,-0.78505 0.93591,-0.72627 1.47151,-0.34556l0.19076,0.13559c0.53559,0.38071 0.64636,0.76867 0.12484,1.50236z" data-paper-data="{&quot;glyphName&quot;:&quot;R&quot;,&quot;glyphIndex&quot;:23,&quot;lastGlyphOfWord&quot;:true,&quot;word&quot;:7}" id="element-id-97467"></path><path d="M363.00828,281.48295l6.19498,3.10864l0.56924,-1.13441l-1.89872,-0.95278l0.21397,-0.42641c0.73881,-1.47231 0.50679,-2.49515 -0.77243,-3.13707l-0.57123,-0.28664c-1.3114,-0.65806 -2.20168,-0.2286 -2.9526,1.26785zM366.7997,281.9755l-2.21249,-1.11023l0.22608,-0.45054c0.43198,-0.86086 0.8346,-0.90054 1.42191,-0.60582l0.45859,0.23012c0.58732,0.29471 0.72763,0.69748 0.32391,1.50202z" data-paper-data="{&quot;glyphName&quot;:&quot;P&quot;,&quot;glyphIndex&quot;:24,&quot;firstGlyphOfWord&quot;:true,&quot;word&quot;:8}" id="element-id-8081"></path><path d="M374.17376,273.80945c0.59951,-1.53432 0.2663,-2.43765 -1.06679,-2.95854l-2.73327,-1.06797c-1.36663,-0.53399 -2.18063,-0.10789 -2.78996,1.45158c-0.60933,1.55947 -0.28018,2.37424 1.08645,2.90823l2.73327,1.06797c1.3331,0.52088 2.1708,0.13304 2.77031,-1.40128zM373.15088,273.40978c-0.3276,0.83843 -0.74198,0.86013 -1.35403,0.62099l-2.61589,-1.02211c-0.5869,-0.22932 -0.90195,-0.53604 -0.57435,-1.37446c0.35053,-0.89712 0.78679,-0.90061 1.37369,-0.67129l2.61589,1.02211c0.61205,0.23915 0.88229,0.58634 0.55469,1.42477z" data-paper-data="{&quot;glyphName&quot;:&quot;O&quot;,&quot;glyphIndex&quot;:25,&quot;word&quot;:8}" id="element-id-62739"></path><path d="M370.48851,263.08791l-0.35972,1.19839l6.63857,1.99267l0.35972,-1.19839z" data-paper-data="{&quot;glyphName&quot;:&quot;I&quot;,&quot;glyphIndex&quot;:26,&quot;word&quot;:8}" id="element-id-77290"></path><path d="M372.71768,253.88675l-0.25943,1.20562l1.60162,0.34464l2.88844,0.48343l-4.88962,1.02875l-0.25943,1.20562l6.76728,1.45621l0.25943,-1.20562l-1.72482,-0.37115l-2.59236,-0.44734l4.72242,-1.06473l0.25375,-1.17921z" data-paper-data="{&quot;glyphName&quot;:&quot;N&quot;,&quot;glyphIndex&quot;:27,&quot;word&quot;:8}" id="element-id-41104"></path><path d="M373.9986,245.35967l-0.50993,4.07291l1.09861,0.13755l0.17892,-1.42909l5.75209,0.72017l0.1532,-1.22366l-5.75209,-0.72017l0.17781,-1.42016z" data-paper-data="{&quot;glyphName&quot;:&quot;T&quot;,&quot;glyphIndex&quot;:28,&quot;lastGlyphOfWord&quot;:true,&quot;word&quot;:8}" id="element-id-27354"></path></g><g data-paper-data="{&quot;isContainerElementsWrapper&quot;:true}" fill-rule="evenodd" id="element-id-15244"><path d="M183.78305,143.78305c-11.90226,11.90224 -21.11727,25.57007 -27.64502,41.00349c-6.75869,15.97959 -10.13803,32.71728 -10.13803,50.21306c0,17.49552 3.37934,34.23304 10.13803,50.21257c6.52795,15.43379 15.74295,29.10199 27.64502,41.00457c11.90387,11.90324 25.57173,21.11779 41.00359,27.64364c15.98038,6.75974 32.71803,10.13961 50.21296,10.13961c17.49552,0 34.23304,-3.37987 50.21257,-10.13961c15.4351,-6.52782 29.1033,-15.74237 41.00457,-27.64364c11.90193,-11.90324 21.11648,-25.57143 27.64364,-41.00457c6.75974,-15.97953 10.13961,-32.71705 10.13961,-50.21257c0,-17.49559 -3.37987,-34.23327 -10.13961,-50.21306c-6.52782,-15.43403 -15.74237,-29.10186 -27.64364,-41.00349c-11.90259,-11.90233 -25.57078,-21.11733 -41.00457,-27.64502c-15.97953,-6.75869 -32.71705,-10.13803 -50.21257,-10.13803c-17.49565,0 -34.23334,3.37934 -50.21306,10.13803c-15.43336,6.52775 -29.10119,15.74276 -41.00349,27.64502zM148.54463,234.99961c0,-17.15164 3.31239,-33.55887 9.93717,-49.2217c6.39889,-15.12875 15.43242,-28.52725 27.1006,-40.19551c11.66838,-11.66824 25.06688,-20.70178 40.19551,-27.1006c15.6627,-6.62478 32.06993,-9.93717 49.2217,-9.93717c17.15223,0 33.55956,3.31239 49.222,9.93717c15.12915,6.39895 28.52743,15.43248 40.19482,27.1006c11.66805,11.66772 20.70178,25.06622 27.10119,40.19551c6.62478,15.66244 9.93717,32.06967 9.93717,49.2217c0,17.15157 -3.31239,33.5589 -9.93717,49.222c-6.3981,15.12719 -15.43183,28.52546 -27.10119,40.19482c-11.66739,11.66805 -25.06567,20.70178 -40.19482,27.10119c-15.66309,6.62478 -32.07043,9.93717 -49.222,9.93717c-17.15046,0 -33.55773,-3.31239 -49.2218,-9.93717c-15.12773,-6.3981 -28.5262,-15.43183 -40.19541,-27.10119c-11.66831,-11.66805 -20.70184,-25.06632 -27.1006,-40.19482c-6.62478,-15.66375 -9.93717,-32.07108 -9.93717,-49.222z" data-paper-data="{&quot;isBaseLogoContainer&quot;:true}" id="element-id-81303"></path></g></g></g>
<rect data-element-id="element-id-15244" stroke-width="2" fill="transparent" class="invisible-element-box grouping-element" x="146" y="106" width="258" height="258" data-element-name="isContainerElementsWrapper"></rect><rect data-element-id="element-id-81303" stroke-width="2" fill="transparent" class="invisible-element-box individual-element" x="146" y="106" width="258" height="258"></rect><rect data-element-id="element-id-20630" stroke-width="2" fill="transparent" class="invisible-element-box grouping-element" x="196" y="156" width="157" height="157" data-element-name="isIcon"></rect><rect data-element-id="element-id-24689" stroke-width="2" fill="transparent" class="invisible-element-box individual-element" x="196" y="156" width="157" height="157"></rect><rect data-element-id="element-id-19323" stroke-width="2" fill="transparent" class="invisible-element-box grouping-element" x="162" y="122" width="226" height="105" data-element-name="isPrimaryText"></rect><rect data-element-id="element-id-96841" stroke-width="2" fill="transparent" class="invisible-element-box grouping-element" x="169" y="245" width="212" height="96" data-element-name="isSecondaryText"></rect><rect data-element-id="element-id-42678" stroke-width="2" fill="transparent" class="invisible-element-box individual-element" x="352" y="175" width="27" height="25"></rect><rect data-element-id="element-id-30437" stroke-width="2" fill="transparent" class="invisible-element-box individual-element" x="171" y="175" width="25" height="23"></rect><rect data-element-id="element-id-33305" stroke-width="2" fill="transparent" class="invisible-element-box individual-element" x="320" y="138" width="23" height="24"></rect><rect data-element-id="element-id-98806" stroke-width="2" fill="transparent" class="invisible-element-box individual-element" x="230" y="128" width="21" height="24"></rect><rect data-element-id="element-id-71812" stroke-width="2" fill="transparent" class="invisible-element-box individual-element" x="293" y="124" width="20" height="22"></rect><rect data-element-id="element-id-51842" stroke-width="2" fill="transparent" class="invisible-element-box individual-element" x="204" y="145" width="23" height="19"></rect><rect data-element-id="element-id-48102" stroke-width="2" fill="transparent" class="invisible-element-box individual-element" x="162" y="208" width="23" height="18"></rect><rect data-element-id="element-id-98480" stroke-width="2" fill="transparent" class="invisible-element-box individual-element" x="264" y="122" width="17" height="23"></rect><rect data-element-id="element-id-92869" stroke-width="2" fill="transparent" class="invisible-element-box individual-element" x="365" y="206" width="23" height="16"></rect><rect data-element-id="element-id-26042" stroke-width="2" fill="transparent" class="invisible-element-box individual-element" x="189" y="158" width="18" height="17"></rect><rect data-element-id="element-id-3437" stroke-width="2" fill="transparent" class="invisible-element-box individual-element" x="343" y="159" width="18" height="17"></rect><rect data-element-id="element-id-24383" stroke-width="2" fill="transparent" class="invisible-element-box individual-element" x="179" y="278" width="8" height="7"></rect><rect data-element-id="element-id-45885" stroke-width="2" fill="transparent" class="invisible-element-box individual-element" x="188" y="291" width="8" height="7"></rect><rect data-element-id="element-id-21187" stroke-width="2" fill="transparent" class="invisible-element-box individual-element" x="219" y="319" width="7" height="8"></rect><rect data-element-id="element-id-97467" stroke-width="2" fill="transparent" class="invisible-element-box individual-element" x="355" y="292" width="8" height="7"></rect><rect data-element-id="element-id-16963" stroke-width="2" fill="transparent" class="invisible-element-box individual-element" x="206" y="311" width="7" height="7"></rect><rect data-element-id="element-id-6017" stroke-width="2" fill="transparent" class="invisible-element-box individual-element" x="335" y="311" width="7" height="7"></rect><rect data-element-id="element-id-29495" stroke-width="2" fill="transparent" class="invisible-element-box individual-element" x="343" y="306" width="7" height="7"></rect><rect data-element-id="element-id-18774" stroke-width="2" fill="transparent" class="invisible-element-box individual-element" x="349" y="298" width="7" height="7"></rect><rect data-element-id="element-id-26176" stroke-width="2" fill="transparent" class="invisible-element-box individual-element" x="315" y="324" width="6" height="8"></rect><rect data-element-id="element-id-41104" stroke-width="2" fill="transparent" class="invisible-element-box individual-element" x="372" y="254" width="8" height="6"></rect><rect data-element-id="element-id-72109" stroke-width="2" fill="transparent" class="invisible-element-box individual-element" x="171" y="255" width="7" height="6"></rect><rect data-element-id="element-id-63988" stroke-width="2" fill="transparent" class="invisible-element-box individual-element" x="175" y="270" width="7" height="6"></rect><rect data-element-id="element-id-32484" stroke-width="2" fill="transparent" class="invisible-element-box individual-element" x="198" y="304" width="7" height="6"></rect><rect data-element-id="element-id-76532" stroke-width="2" fill="transparent" class="invisible-element-box individual-element" x="300" y="330" width="6" height="7"></rect><rect data-element-id="element-id-8081" stroke-width="2" fill="transparent" class="invisible-element-box individual-element" x="363" y="278" width="7" height="6"></rect><rect data-element-id="element-id-62739" stroke-width="2" fill="transparent" class="invisible-element-box individual-element" x="367" y="270" width="7" height="6"></rect><rect data-element-id="element-id-98923" stroke-width="2" fill="transparent" class="invisible-element-box individual-element" x="169" y="245" width="7" height="5"></rect><rect data-element-id="element-id-83532" stroke-width="2" fill="transparent" class="invisible-element-box individual-element" x="228" y="324" width="5" height="7"></rect><rect data-element-id="element-id-24568" stroke-width="2" fill="transparent" class="invisible-element-box individual-element" x="242" y="329" width="5" height="7"></rect><rect data-element-id="element-id-35489" stroke-width="2" fill="transparent" class="invisible-element-box individual-element" x="250" y="332" width="5" height="7"></rect><rect data-element-id="element-id-1814" stroke-width="2" fill="transparent" class="invisible-element-box individual-element" x="266" y="334" width="5" height="7"></rect><rect data-element-id="element-id-99782" stroke-width="2" fill="transparent" class="invisible-element-box individual-element" x="276" y="334" width="5" height="7"></rect><rect data-element-id="element-id-38171" stroke-width="2" fill="transparent" class="invisible-element-box individual-element" x="292" y="333" width="5" height="7"></rect><rect data-element-id="element-id-43498" stroke-width="2" fill="transparent" class="invisible-element-box individual-element" x="324" y="320" width="5" height="7"></rect><rect data-element-id="element-id-2112" stroke-width="2" fill="transparent" class="invisible-element-box individual-element" x="213" y="316" width="5" height="6"></rect><rect data-element-id="element-id-27354" stroke-width="2" fill="transparent" class="invisible-element-box individual-element" x="373" y="245" width="7" height="4"></rect><rect data-element-id="element-id-59563" stroke-width="2" fill="transparent" class="invisible-element-box individual-element" x="173" y="264" width="7" height="3"></rect><rect data-element-id="element-id-77290" stroke-width="2" fill="transparent" class="invisible-element-box individual-element" x="370" y="263" width="7" height="3"></rect><rect data-element-id="element-id-87920" stroke-width="2" fill="transparent" class="invisible-element-box individual-element" x="286" y="334" width="2" height="7"></rect></svg>